<svg xmlns="http://www.w3.org/2000/svg" viewBox="0 0 760 520" fill="none">
  <g stroke="#17181A" stroke-width="9" stroke-linecap="round" stroke-linejoin="round">
    <path d="M225 121c-20-34-82-21-85 25-3 49 66 63 89 23 8-14 6-33-4-48Z"/>
    <path d="M155 188c-36 25-49 82-49 152v112h147l-7-121 61-53"/>
    <path d="M207 234c31 30 60 34 92 13l37-27"/>
    <path d="m327 212 23-7-12 22"/>
    <path d="M590 120c-18-38-83-29-89 18-6 48 61 68 88 29 10-14 10-32 1-47Z"/>
    <path d="M521 193c-43 31-49 94-45 159l8 100h151l-15-133 44 37"/>
    <path d="M538 244c-28 26-53 38-84 10l-36-32"/>
    <path d="m426 215-26-3 16 20"/>
    <rect x="270" y="76" width="224" height="178" rx="15"/>
    <path d="M306 156h56m-28-28v56"/>
    <path d="M403 134c33-26 71 14 43 39-17 15-19 26-19 39"/>
    <path d="M414 226h26"/>
    <path d="M358 165h43"/>
    <path d="m389 151 16 14-16 14"/>
  </g>
  <path d="M293 296c58 54 125 56 190 1" stroke="#34A853" stroke-width="11" stroke-linecap="round"/>
  <path d="M338 110c-14 11-25 13-35 2m167 94c-8 8-17 11-27 7" stroke="#4285F4" stroke-width="8" stroke-linecap="round"/>
  <circle cx="279" cy="326" r="8" fill="#FBBC04"/>
  <path d="m685 115 13 16m-7-36 20 6m-3 34 18-8" stroke="#EA4335" stroke-width="8" stroke-linecap="round"/>
</svg>
